<?xml version="1.0" encoding="UTF-8" standalone="no"?>
<!DOCTYPE svg PUBLIC "-//W3C//DTD SVG 1.1//EN"
 "http://www.w3.org/Graphics/SVG/1.1/DTD/svg11.dtd">
<!-- Generated by graphviz version 2.38.0 (20140413.2041)
 -->
<!-- Title: server Pages: 1 -->
<svg width="439pt" height="260pt"
 viewBox="0.00 0.00 439.09 260.00" xmlns="http://www.w3.org/2000/svg" xmlns:xlink="http://www.w3.org/1999/xlink">
<g id="graph0" class="graph" transform="scale(1 1) rotate(0) translate(4 256)">
<title>server</title>
<polygon fill="white" stroke="none" points="-4,4 -4,-256 435.088,-256 435.088,4 -4,4"/>
<!-- ChatServer -->
<g id="node1" class="node"><title>ChatServer</title>
<ellipse fill="none" stroke="black" cx="207.845" cy="-234" rx="50.0912" ry="18"/>
<text text-anchor="middle" x="207.845" y="-230.3" font-family="Times,serif" font-size="14.00">ChatServer</text>
</g>
<!-- ChatRoom -->
<g id="node2" class="node"><title>ChatRoom</title>
<ellipse fill="none" stroke="black" cx="171.845" cy="-90" rx="49.2915" ry="18"/>
<text text-anchor="middle" x="171.845" y="-86.3" font-family="Times,serif" font-size="14.00">ChatRoom</text>
</g>
<!-- ChatServer&#45;&gt;ChatRoom -->
<g id="edge1" class="edge"><title>ChatServer&#45;&gt;ChatRoom</title>
<path fill="none" stroke="black" d="M199.656,-216.18C194.977,-205.938 189.359,-192.466 185.845,-180 180.125,-159.708 176.547,-136.111 174.442,-118.315"/>
<polygon fill="black" stroke="black" points="177.915,-117.878 173.341,-108.322 170.957,-118.645 177.915,-117.878"/>
</g>
<!-- ChatSession -->
<g id="node3" class="node"><title>ChatSession</title>
<ellipse fill="none" stroke="black" cx="248.845" cy="-162" rx="53.8905" ry="18"/>
<text text-anchor="middle" x="248.845" y="-158.3" font-family="Times,serif" font-size="14.00">ChatSession</text>
</g>
<!-- ChatServer&#45;&gt;ChatSession -->
<g id="edge2" class="edge"><title>ChatServer&#45;&gt;ChatSession</title>
<path fill="none" stroke="black" d="M217.77,-216.055C222.604,-207.801 228.52,-197.701 233.887,-188.538"/>
<polygon fill="black" stroke="black" points="236.977,-190.187 239.011,-179.789 230.937,-186.649 236.977,-190.187"/>
</g>
<!-- ChatMember -->
<g id="node4" class="node"><title>ChatMember</title>
<ellipse fill="none" stroke="black" cx="57.8449" cy="-18" rx="57.6901" ry="18"/>
<text text-anchor="middle" x="57.8449" y="-14.3" font-family="Times,serif" font-size="14.00">ChatMember</text>
</g>
<!-- ChatRoom&#45;&gt;ChatMember -->
<g id="edge7" class="edge"><title>ChatRoom&#45;&gt;ChatMember</title>
<path fill="none" stroke="black" d="M147.668,-74.1548C131.267,-64.084 109.367,-50.6361 91.2967,-39.5406"/>
<polygon fill="black" stroke="black" points="93.1277,-36.5578 82.7746,-34.3077 89.4649,-42.523 93.1277,-36.5578"/>
</g>
<!-- ChatMessage -->
<g id="node5" class="node"><title>ChatMessage</title>
<ellipse fill="none" stroke="black" cx="191.845" cy="-18" rx="58.4896" ry="18"/>
<text text-anchor="middle" x="191.845" y="-14.3" font-family="Times,serif" font-size="14.00">ChatMessage</text>
</g>
<!-- ChatRoom&#45;&gt;ChatMessage -->
<g id="edge8" class="edge"><title>ChatRoom&#45;&gt;ChatMessage</title>
<path fill="none" stroke="black" d="M176.686,-72.055C178.913,-64.2609 181.61,-54.8219 184.108,-46.0789"/>
<polygon fill="black" stroke="black" points="187.527,-46.8521 186.909,-36.2753 180.796,-44.929 187.527,-46.8521"/>
</g>
<!-- ChatMessageQueue -->
<g id="node6" class="node"><title>ChatMessageQueue</title>
<ellipse fill="none" stroke="black" cx="349.845" cy="-18" rx="81.4863" ry="18"/>
<text text-anchor="middle" x="349.845" y="-14.3" font-family="Times,serif" font-size="14.00">ChatMessageQueue</text>
</g>
<!-- ChatRoom&#45;&gt;ChatMessageQueue -->
<g id="edge9" class="edge"><title>ChatRoom&#45;&gt;ChatMessageQueue</title>
<path fill="none" stroke="black" d="M204.079,-76.3235C231.499,-65.5406 271.255,-49.9061 302.324,-37.6878"/>
<polygon fill="black" stroke="black" points="303.639,-40.9318 311.665,-34.0147 301.077,-34.4174 303.639,-40.9318"/>
</g>
<!-- ChatSession&#45;&gt;ChatRoom -->
<g id="edge4" class="edge"><title>ChatSession&#45;&gt;ChatRoom</title>
<path fill="none" stroke="black" d="M230.986,-144.765C220.905,-135.6 208.142,-123.998 197.056,-113.919"/>
<polygon fill="black" stroke="black" points="199.095,-111.043 189.341,-106.906 194.386,-116.223 199.095,-111.043"/>
</g>
<!-- ChatSession&#45;&gt;ChatMember -->
<g id="edge3" class="edge"><title>ChatSession&#45;&gt;ChatMember</title>
<path fill="none" stroke="black" d="M205.05,-151.378C176.671,-143.433 140.219,-129.84 113.845,-108 93.517,-91.1666 78.2888,-64.9611 68.8836,-45.3379"/>
<polygon fill="black" stroke="black" points="71.967,-43.6649 64.6187,-36.0325 65.6035,-46.5815 71.967,-43.6649"/>
</g>
<!-- ChatSession&#45;&gt;ChatMessage -->
<g id="edge5" class="edge"><title>ChatSession&#45;&gt;ChatMessage</title>
<path fill="none" stroke="black" d="M247.306,-143.961C245.171,-125.56 240.32,-95.6995 229.845,-72 225.451,-62.0586 219.009,-52.1201 212.672,-43.5804"/>
<polygon fill="black" stroke="black" points="215.345,-41.3157 206.451,-35.5586 209.814,-45.6056 215.345,-41.3157"/>
</g>
<!-- ChatSession&#45;&gt;ChatMessageQueue -->
<g id="edge6" class="edge"><title>ChatSession&#45;&gt;ChatMessageQueue</title>
<path fill="none" stroke="black" d="M260.629,-144.433C278.171,-119.769 311.292,-73.2029 331.871,-44.2708"/>
<polygon fill="black" stroke="black" points="334.879,-46.0794 337.823,-35.9017 329.175,-42.0221 334.879,-46.0794"/>
</g>
</g>
</svg>
